<svg width="27" height="27" viewBox="0 0 27 27" fill="none" xmlns="http://www.w3.org/2000/svg">
<path d="M2.00376 27C0.361269 27 -0.58107 25.1295 0.396334 23.8096L7.15122 14.6904C7.67504 13.9833 7.675 13.0168 7.15122 12.3096L0.396336 3.19043C-0.581197 1.87051 0.361207 -2.25751e-06 2.00376 -2.11391e-06L24.1805 -1.75156e-07C25.8007 0.000211682 26.7487 1.82635 25.8163 3.15137L19.3436 12.3486C18.8577 13.039 18.8578 13.96 19.3436 14.6504L25.8163 23.8477C26.7486 25.1727 25.8007 26.9988 24.1805 26.999L2.00376 27ZM11.0331 24.999C12.1376 24.999 13.0331 24.1036 13.0331 22.999L13.0331 3.99902C13.0331 2.89445 12.1376 1.99902 11.0331 1.99902L5.99887 1.99902C4.35724 1.99902 3.41475 3.86732 4.39048 5.1875L9.65415 12.3105C10.1763 13.017 10.1763 13.981 9.65415 14.6875L4.39047 21.8105C3.41475 23.1307 4.35724 24.999 5.99887 24.999L11.0331 24.999Z" fill="white"/>
</svg>
