<svg width="34" height="34" viewBox="0 0 34 34" fill="none" xmlns="http://www.w3.org/2000/svg">
<path d="M12.3745 1.75736C14.7177 -0.585789 18.5167 -0.585789 20.8599 1.75736L31.4771 12.3745C33.8201 14.7177 33.8202 18.5168 31.4771 20.8599L20.8599 31.4771C18.5168 33.8202 14.7177 33.8201 12.3745 31.4771L1.75736 20.8599C-0.585789 18.5167 -0.585789 14.7177 1.75736 12.3745L12.3745 1.75736ZM17.5142 8.75736C17.5142 6.08464 14.283 4.74637 12.3931 6.63626L4.63529 14.3931C3.46378 15.5647 3.46374 17.4647 4.63529 18.6363L12.3931 26.3931C14.283 28.283 17.5142 26.9447 17.5142 24.272V8.75736Z" fill="white"/>
</svg>
